cover



Genre:Crime
Language:English
IMDb:http://www.imdb.com/title/tt1087524/
Source:DVD

General
Complete name :Once.Fallen.2010.DvDRipXviD,Ac3.Feel-Free
Format : AVI
Format/Info : Audio Video Interleave
File size : 866 MiB
Duration : 1h 32mn
Overall bit rate : 1 304 Kbps
Video #0
Codec ID : XVID
Codec ID/Hint : XviD
Duration : 1h 32mn
Bit rate : 911 Kbps
Width : 720 pixels
Height : 384 pixels
Display aspect ratio : 1.875
Frame rate : 23.976 fps
Resolution : 24 bits
Colorimetry : 4:2:0
Scan type : Progressive
Bits/(Pixel*Frame) : 0.137
Stream size : 605 MiB (70%)
Writing library : XviD 1.2.1 (UTC 2008-12-04)
Audio #1
ID : 1
Format : AC-3
Format/Info : Audio Coding 3
Codec ID : 2000
Duration : 1h 32mn
Bit rate mode : Constant
Bit rate : 384 Kbps
Channel(s) : 6 channels
Channel positions : Front: L C R, Surround: L R, LFE
Sampling rate : 48.0 KHz
Video delay : 500ms
Stream size : 255 MiB (29%)
Alignment : Split accross interleaves
Interleave, duration : 42 ms (1.00 video frame)
Interleave, preload duration : 500 ms
Plot:
The hardest part about moving on is saying goodbye.

screens
 
http://rapidhdd.com/images/515837vlcsnap-2010-11-04-06h50m22s12.png 
http://www.rapidhdd.com/images/303363vlcsnap-2010-11-04-06h50m34s141.png 
http://www.rapidhdd.com/images/65967vlcsnap-2010-11-04-06h50m43s224.png 
http://www.rapidhdd.com/images/355997vlcsnap-2010-11-04-06h51m53s162.png 
http://www.rapidhdd.com/images/21223vlcsnap-2010-11-04-06h50m26s62.png